<?xml version="1.0" standalone="no"?>
<!DOCTYPE svg PUBLIC "-//W3C//DTD SVG 1.1//EN" "http://www.w3.org/Graphics/SVG/1.1/DTD/svg11.dtd">
<svg xmlns="http://www.w3.org/2000/svg">
<metadata>Generated by Fontastic.me</metadata>
<defs>
<font id="animcouleur2-iconfont" horiz-adv-x="512">
<font-face font-family="animcouleur2-iconfont" units-per-em="512" ascent="480" descent="-32"/>
<missing-glyph horiz-adv-x="512" />

<glyph unicode="&#97;" d="M171 0l0 171-171 0z m341 469l0 43-512 0 0-43 21 0 0-42-21 0 0-214 213 0 0-213 299 0 0 43-21 0 0 42 21 0 0 342-21 0 0 42z m-405-42l-43 0 0 42 43 0z m85 0l-43 0 0 42 43 0z m128 42l43 0 0-42-43 0z m-85 0l42 0 0-42-42 0z m42-426l-42 0 0 42 42 0z m86 0l-43 0 0 42 43 0z m-86 213c0 60 49 107 111 107 13 0 26-2 39-7l0-40c-11 6-22 8-34 8-39 0-71-30-71-68 0-38 32-68 71-68 12 0 23 2 34 8l0-40c-13-5-26-7-39-7-62 0-111 47-111 107z m171-213l-43 0 0 42 43 0z m0 384l-43 0 0 42 43 0z"/>
<glyph unicode="&#98;" d="M256 512c-141 0-256-115-256-256 0-141 115-256 256-256 141 0 256 115 256 256 0 141-115 256-256 256z m0-469c-117 0-213 96-213 213 0 117 96 213 213 213 117 0 213-96 213-213 0-117-96-213-213-213z m-43 42l86 0 0 235-86 0z m43 346c-26 0-47-21-47-47 0-26 21-47 47-47 26 0 47 21 47 47 0 26-21 47-47 47z"/>
<glyph unicode="&#99;" d="M503 154c-2-3-6-5-8-7l-314-130c-2-6-6-13-10-17l298 0c24 0 43 19 43 43l0 85c0 9-4 17-9 26z m-17 12c22 9 32 35 24 56l-32 79c-2 6-9 13-13 17-2-7-6-13-13-19l-254-252z m-277-76l226 224c17 17 17 42 0 59l-60 60c-6 6-17 11-25 13 2-11 0-24-4-34z m-17 12l132 320c9 22-2 47-23 56l-79 32c-13 4-28 2-41-7 7-10 11-21 11-34z m-21 367c0 24-20 43-43 43l-85 0c-24 0-43-19-43-43l0-426c0-24 19-43 43-43l85 0c23 0 43 19 43 43z m-64-426c-13 0-22 8-22 21 0 13 9 21 22 21 12 0 21-8 21-21 0-13-9-21-21-21z"/>
<glyph unicode="&#100;" d="M26 47l-5-26 26 5 175 89-107 107z m160 75l-99-52-14 15 51 98z m260 352c-21 21-58 21-79 0l-19-20c-7-6-7-17 0-23l83-83c6-7 17-7 23 0l20 19c21 21 21 58 0 79z m-314-235l107-107 190 190-107 107z m-132 273z m512-512z"/>
<glyph unicode="&#101;" d="M194 448c13 0 21 11 21 21 0 11-10 22-21 22-11 0-21-11-21-22 0-10 8-21 21-21z m-119-68c12 0 21 10 21 21 0 13-11 21-21 21-11 0-22-10-22-21 0-11 11-21 22-21z m239 0c12 0 21 10 21 21 0 11-11 21-21 21-11 0-22-10-22-21 0-11 9-21 22-21z m-220-107c0 2 0 2 0 0-2 2-2 2 0 0-4 6-11 11-19 11-13 0-22-11-22-22 0-10 11-21 22-21 10 0 21 11 21 21 0 5-2 9-2 11z m416-215l-199 198c0 0-4-17 0-47 5-28 18-49 18-49l142-143 41-2z m-318 160c-13 0-21-11-21-22 0-10 10-21 21-21 13 0 21 11 21 21 0 11-8 22-21 22z m79 70c11 19 66 32 111 38 2 0 6 3 6 7 0 4-2 6-6 6-45 7-100 19-111 39-11 19 6 74 23 115 3 2 0 6-2 8 0 0-2 0-2 0-2 0-4 0-4-2-28-34-66-77-88-77-21 0-59 43-87 77-6 2-9 2-11 2-2 0-2 0-4 0-2-2-2-6-2-8 17-43 34-96 23-115-12-20-68-32-111-39-4 0-6-2-6-6 0-2 2-7 6-7 43-6 99-19 111-38 11-19-6-75-23-115 0-2 0-7 2-9 0 0 2 0 4 0 2 0 5 0 5 2 27 35 66 77 87 77 21 0 60-42 87-77 3-2 3-2 5-2 0 0 2 0 2 0 2 2 4 5 2 9-11 42-30 96-17 115z m241-288z m-512 512z"/>
<glyph unicode="&#102;" d="M181 512l-42 0 0-43 42 0z m96 0l-42 0 0-43 42 0z m96 0l-42 0 0-43 42 0z m-234-512l42 0 0 43-42 0z m96 0l42 0 0 43-42 0z m96 0l42 0 0 43-42 0z m-331 427l43 0 0 42 42 0 0 43-85 0z m43-342l-43 0 0-85 85 0 0 43-42 0z m426-42l-42 0 0-43 85 0 0 85-43 0z m-42 469l0-43 42 0 0-42 43 0 0 85z m-384-139l-43 0 0-42 43 0z m0-96l-43 0 0-42 43 0z m192 0l-43 0 0 43-43 0 0-43-42 0 0-42 42 0 0-43 43 0 0 43 43 0z m-192-96l-43 0 0-42 43 0z m426 150l43 0 0 42-43 0z m0-96l43 0 0 42-43 0z m0-96l43 0 0 42-43 0z m-128 288l-42 0-43-43 0-43 43 0 0-170-43 0 0-43 128 0 0 43-43 0z"/>
<glyph unicode="&#103;" d="M181 512l-42 0 0-43 42 0z m96 0l-42 0 0-43 42 0z m96 0l-42 0 0-43 42 0z m-234-512l42 0 0 43-42 0z m96 0l42 0 0 43-42 0z m96 0l42 0 0 43-42 0z m-331 427l43 0 0 42 42 0 0 43-85 0z m43-342l-43 0 0-85 85 0 0 43-42 0z m426-42l-42 0 0-43 85 0 0 85-43 0z m-42 469l0-43 42 0 0-42 43 0 0 85z m-384-139l-43 0 0-42 43 0z m0-96l-43 0 0-42 43 0z m192 0l-128 0 0-42 128 0z m-192-96l-43 0 0-42 43 0z m426 150l43 0 0 42-43 0z m0-96l43 0 0 42-43 0z m0-96l43 0 0 42-43 0z m-128 288l-42 0-43-43 0-43 43 0 0-170-43 0 0-43 128 0 0 43-43 0z"/>
<glyph unicode="&#104;" d="M226 45l-4-43c11-2 23-2 34-2 11 0 23 0 34 2l-4 43c-19-2-41-2-60 0z m-81 313c0 11 2 20 4 28l-6 19c-21-8-43-21-60-34l26-34c10 9 23 15 36 21z m258-21l26 34c-17 13-39 26-60 34l-6-17c2-8 4-19 4-30 13-6 26-12 36-21z m7-241l27-32c20 15 34 34 47 53l-36 22c-11-17-23-30-38-43z m102 134l-43-4c0-4 0-8 0-13 0-15-2-27-6-40l40-13c7 17 9 36 9 53 0 7 0 13 0 17z m-399-194c19-10 41-19 64-25l11 40c-19 4-39 13-54 22z m-32 275l-32 28c-17-19-28-38-36-62l40-15c5 17 15 35 28 49z m-38-98c0 5 0 9 0 15l-43 5c0-7 0-13 0-20 0-17 2-36 9-53l40 13c-4 13-6 28-6 40z m21-74l-36-22c13-19 27-38 47-53l27 32c-15 13-27 28-38 43z m435 138c-8 22-21 43-36 62l-32-28c13-14 23-29 30-46z m-175-226l11-40c23 6 45 15 64 25l-21 37c-15-9-35-15-54-22z m-68 226c43 0 79 34 79 79 0 69-79 77-79 156 0-79-79-92-79-156 0-45 36-79 79-79z m0-192c94 0 171 58 171 128l-342 0c0-70 77-128 171-128z"/>
<glyph unicode="&#105;" d="M324 51l11-40c23 6 45 15 64 25l-21 37c-15-9-35-15-54-22z m-175 342l-10 10c-20-8-39-19-56-32l19-25 47 44z m261-297l27-32c20 15 34 34 47 53l-36 22c-11-17-23-30-38-43z m-37 307l-10-10 0-3 47-47 19 26c-17 15-36 26-56 34z m126-126c-8 22-21 43-36 62l-32-28c13-14 23-29 30-46z m-435-138l-36-22c13-19 27-38 47-53l27 32c-15 13-27 28-38 43z m17 172l-32 28c-17-19-28-38-36-62l40-15c5 17 15 35 28 49z m32-275c19-10 41-19 64-25l11 40c-19 4-39 13-54 22z m-70 177c0 5 0 9 0 15l-43 5c0-7 0-13 0-20 0-17 2-36 9-53l40 13c-4 13-6 28-6 40z m469 17l-43-4c0-4 0-8 0-13 0-15-2-27-6-40l40-13c7 17 9 36 9 53 0 7 0 13 0 17z m-286-185l-4-43c11-2 23-2 34-2 11 0 23 0 34 2l-4 43c-19-2-41-2-60 0z m90 345l59 60-59 62-60-60-60 60-62-60 60-59-60-62 60-60 62 60 60-60 59 60z"/>
<glyph unicode="&#106;" d="M427 512l0-107 85 54z m-22 0l-42 0 0-107 42 0z m-106-448c70 0 128 43 128 96l-256 0c0-53 57-96 128-96z m-84 205c0 8 3 15 5 21l-7 13c-17-6-32-15-44-26l19-25c8 8 19 13 27 17z m84-62c32 0 59 26 59 60 0 51-59 57-59 117 0-60-60-68-60-117 0-32 28-60 60-60z m153-11l30 11c-6 17-15 32-28 45l-23-22c8-8 15-21 21-34z m-70 107l-4-13c2-6 4-13 4-21 11-4 19-11 28-17l19 25c-15 11-30 20-47 26z m77-132c0-5 0-7 0-11 0-11-2-21-5-30l30-11c5 13 7 26 7 41 0 4 0 9 0 13z m-182-137l-4-32c9 0 17-2 26-2 8 0 17 0 25 2l-4 32c-15-2-30-2-43 0z m-121 71l-28-18c9-14 21-27 34-40l21 26c-12 8-21 19-27 32z m36-77c15-9 32-15 47-19l8 29c-14 5-27 9-40 17z m158 10l8-32c17 5 35 11 47 20l-15 27c-12-4-25-10-40-15z m64 35l21-24c15 13 26 26 34 41l-27 17c-7-15-15-26-28-34z m-275 87c0 4 0 6 0 11l-32 2c0-4 0-9 0-13 0-13 2-28 6-41l30 9c-2 11-4 21-4 32z m-24 49l30-11c4 13 13 26 21 37l-23 21c-11-15-21-30-28-47z m-72 239l-22 0 0-21-21 0 0-22 21 0 0-21 22 0 0 21 21 0 0 22-21 0z m106-85l-21 0 0 149-19 0-24-21 0-22 24 0 0-106-24 0 0-22 64 0z"/>
<glyph unicode="&#107;" d="M73 363l0-22 98 0 0 22-58 0c26 23 58 62 58 96 0 34-20 53-52 53-32 0-51-32-51-32l22-13c0 0 12 22 29 22 20 0 28-9 28-30 0-34-53-81-74-96z m-30 85l-22 0 0-21-21 0 0-22 21 0 0-21 22 0 0 21 21 0 0 22-21 0z m362 64l-42 0 0-107 42 0z m-106-305c32 0 59 26 59 60 0 51-59 57-59 117 0-60-60-68-60-117 0-32 28-60 60-60z m-111 47c8 6 17 11 27 17 0 8 3 15 5 21l-7 13c-17-6-32-15-44-26z m111-190c70 0 128 43 128 96l-256 0c0-53 57-96 128-96z m128 448l0-107 85 54z m25-316l30 11c-6 17-15 32-28 45l-23-22c8-8 15-21 21-34z m-70 107l-4-13c2-6 4-13 4-21 11-4 19-11 28-17l19 25c-15 11-30 20-47 26z m32-230l21-24c15 13 26 26 34 41l-27 17c-7-15-15-26-28-34z m-64-35l8-32c17 5 35 11 47 20l-15 27c-12-4-25-10-40-15z m-73-4l-4-32c9 0 17-2 26-2 8 0 17 0 25 2l-4 32c-15-2-30-2-43 0z m-132 162c4 13 13 26 21 37l-23 21c-13-13-21-30-28-45z m314-25c0-5 0-7 0-11 0-11-2-21-5-30l30-11c5 13 7 26 7 41 0 4 0 9 0 13z m-267-143c15-9 32-15 47-19l8 29c-14 5-27 9-40 17z m-53 132c0 4 0 6 0 11l-32 2c0-4 0-9 0-13 0-13 2-28 6-41l30 9c-2 11-4 21-4 32z m17-55l-28-18c9-14 21-27 34-40l21 26c-12 8-21 19-27 32z"/>
<glyph unicode="&#108;" d="M322 478c-262 0-322-149-322-201 0-21 13-47 30-70-9-11-13-24-13-38 0-20 17-37 45-43 13-4 25-4 40-2 9-9 15-17 20-24 8-13 12-21 10-27-2-7-10-15-25-24l12-28c18 11 37 24 41 45 4 15-2 32-15 53-4 5-8 11-13 18 9 6 19 14 26 25 11-2 32-2 51-2 216 0 303 139 303 196 0 56-73 122-190 122z m-273-309c0 4 0 8 2 12 7-8 15-17 22-25-15 2-24 8-24 13z m62-11c-11 11-21 23-32 38 19 2 43-4 53-19-6-8-15-15-21-19z m98 30c-17 0-38 2-49 4-21 30-64 43-96 34-2 0-6-2-9-2-12 19-23 38-23 53 0 56 70 169 290 169 103 0 158-53 158-92 0-36-68-166-271-166z m-209 324z m512-512z"/>
<glyph unicode="&#109;" d="M401 260l-113 113 0 32c0 49-43 96-87 96-39 0-60-32-60-87l0-109 2 0-83-83c-37-36-37-96 0-132l51-49c15-20 38-30 64-30 26 0 49 10 66 27l186 186c4-6 6-19 6-38 0-45-45-75-32-120 9-25 36-43 56-34 12 6 23 28 23 81 2 117-47 143-79 147z m-232 154c0 21 4 57 29 57 30 0 60-32 60-66l0-2-8 9-81-79z m53-354c-13-13-28-19-47-19-19 0-34 6-47 19l-51 49c-26 25-26 66 0 92l170 170 11-8 0-81c-8-5-15-15-15-26 0-15 13-28 28-28 15 0 28 13 28 28 0 9-5 17-11 23l0 54 105-105z m-222 452z m512-512z"/>
<glyph unicode="&#110;" d="M247 239c5-2 54-56 54-56l181 222 0 39-36-5z m-125-75c-45-47-79-42-101-36 11-17 34-64 145-64 47 0 86 28 99 49 17 28 0 56-18 75-32 34-78 23-125-24z m-122 348z m512-512z"/>
<glyph unicode="&#111;" d="M143 348c0 53-64 77-90 136 7-64-53-85-53-136 0-39 32-71 70-71 39 0 73 32 73 71z m11-184c-47-47-79-42-103-36 11-17 34-64 145-64 47 0 86 28 98 49 17 28 0 56-17 75-30 34-79 23-123-24z m322 275l-197-200c5-2 54-56 54-56l179 222 0 39z m36-439z m-512 512z"/>
<glyph unicode="&#112;" d="M429 491l-30 0c2-17 6-34 13-54 8-30 19-62 19-113 0-79-26-98-73-132l-10-9c-28-21-56-25-79-23-7 6-4 17 8 32 20 21 56 21 71 111 4 4 10 11 15 17 4 6 4 15-2 21-7 5-15 5-22-2-15-19-34-47-51-72-23-37-49-73-66-92 0 0-2-2-2-4-7-11-41-60-77-98-13-15-30-24-45-24-13 0-23 4-28 9 3 6 17 21 30 32l5 4c25 23 53 60 55 83 0 6 13 24 23 41 20 25 47 66 64 96 5 6 3 15-6 19-6 8-15 6-19 0-15-24-32-49-47-71-6-8-11-17-15-23-2-4-4-6-6-9-7-8-9-10-11-10-2 0-4 4-9 10-10 15-6 22 35 81l12 18c5 6 2 14-4 21-6 4-15 2-21-4-32-43-43-49-45-49-2 0-6 4-9 6-4 2-4 2-4 4 0 9 11 26 36 47 7 4 7 15 3 21-5 7-15 9-20 3-6-5-10-5-10-5-2 2-2 11 4 17 8 11 30 30 51 52 19 19 39 36 47 49l-40 0c-9-9-18-20-28-28-24-21-45-43-54-53-14-17-14-45-2-58 0 0 0 0 2 0-10-13-19-28-19-43 0-10 5-19 13-27 6-7 13-13 24-13-9-22-9-36 2-56 6-8 12-19 23-23 0-2-2-4-2-7 0-8-17-38-47-64l-4-4c-24-21-39-34-39-53 0-7 3-15 9-21 15-13 32-20 49-20 17 0 41 7 66 32 26 28 51 60 66 81 13-2 28-4 45-4 26 0 58 7 90 30l10 9c47 36 86 64 86 155 0 56-11 92-22 122-2 17-6 30-8 45z m83-491z m-512 512z"/>
<glyph unicode="&#113;" d="M512 85l0 427-512 0 0-299 213 0 0-213 299 0 0 43-21 0 0 42z m-341 278l-64 0 0-43 42 0-53-64-53 64 42 0 0 64 86 0z m106-320l-42 0 0 42 42 0z m86 0l-43 0 0 42 43 0z m85 0l-43 0 0 42 43 0z m-107 170c-70 0-128 58-128 128 0 71 58 128 128 128 71 0 128-57 128-128 0-70-57-128-128-128z m-170-213l0 171-171 0z m209 418c-11 4-24 9-39 9-47 0-85-39-85-86 0-47 38-85 85-85 13 0 26 4 39 9-37 0-58 42-58 76 0 34 26 77 58 77z"/>
<glyph unicode="&#114;" d="M171 0l0 171-171 0z m341 85l0 427-512 0 0-299 213 0 0-213 299 0 0 43-21 0 0 42z m-117 344l19 30c6 10 19 10 28 2 8-9 10-19 4-28l-28-23c-4-5-8-9-17-9-2 0-6 2-8 4-9 7 0 20 2 24z m-54 68c13 0 22-8 22-19l-5-36c0-7-2-20-15-20-12 0-14 15-14 20l-9 36c0 13 9 19 21 19z m0-92c37 0 64-27 64-64 0-36-27-64-64-64-36 0-64 28-64 64 0 37 28 64 64 64z m-100 56c9 8 21 6 28 0l19-30c2-4 11-17 0-26-2-2-6-4-9-4-6 0-12 4-17 9l-25 23c-4 4-7 11-4 15 0 4 4 9 8 13z m-70-98l-64 0 0-43 42 0-53-64-53 64 42 0 0 64 86 0z m17 4c2 13 10 19 21 17l34-11c7-2 19-6 17-19 0-6-4-13-19-13l-38 2c-11 3-17 13-15 24z m36-115c-6 0-13 4-17 10-2 5-4 11-2 15 0 7 4 11 8 13l34 13c5 2 9 4 13 4 7 0 11-2 13-6 6-11-4-22-8-24l-28-21c-7-4-11-4-13-4z m53-209l-42 0 0 42 42 0z m20 149c-3 0-7 0-9 2-6 2-11 7-13 11-2 4-2 8 0 13l17 32c2 4 9 15 17 15 2 0 5 0 5 0 12-5 8-20 8-24l-6-34c-5-11-11-15-19-15z m66-149l-43 0 0 42 43 0z m32 151c-2 0-7-2-9-2-8 0-15 4-17 13l-8 34c-3 6-5 19 8 23 2 0 4 0 4 0 9 0 15-8 17-15l17-32c3-6 3-10 0-17-2 0-6-2-12-4z m53-151l-43 0 0 42 43 0z m30 219c-4-6-11-10-17-10-2 0-7 0-9 2l-27 21c-5 4-18 13-9 24 2 4 6 6 13 6 4 0 8-2 13-2l32-13c4-2 8-6 8-11 0-6-2-10-4-17z m2 81l-38-2c-15 0-20 7-20 13-2 13 11 17 17 19l35 11c2 0 2 0 4 0 8 0 17-6 19-17 0-11-6-21-17-24z"/>
<glyph unicode="&#115;" d="M21 491l342 0 0-86 21 0 0 107-384 0 0-384 107 0 0 21-86 0z m171-54c-32 0-60-12-81-32l160 0c-19 20-47 32-79 32z m-85-198l0 162c-20-21-32-49-32-81 0-32 12-60 32-81z m21 145l0-384 384 0 0 384z m363-363l-342 0 0 342 342 0z m-171 64c60 0 107 47 107 107 0 60-47 107-107 107-60 0-107-47-107-107 0-60 47-107 107-107z"/>
<glyph unicode="&#116;" d="M390 363l37 0 0-342-342 0 0 342 37 0 21 21-79 0 0-384 384 0 0 384-79 0z m-134-77l-60-60-27 28c-13-19-20-39-20-62 0-60 47-107 107-107 60 0 107 47 107 107 0 23-7 43-20 60l-27-28z m-122 45l60-60 62 60 60-60 59 60-59 59 59 60-59 62-60-60-60 60-62-60 60-59z m-134 181z m512-512z"/>
<glyph unicode="&#117;" d="M107 239l0 162c-20-21-32-49-32-81 0-32 12-60 32-81z m106-47c0-60 47-107 107-107 60 0 107 47 107 107 0 60-47 107-107 107-60 0-107-47-107-107z m-21 245c-32 0-60-12-81-32l160 0c-19 20-47 32-79 32z m-171 54l342 0 0-86 21 0 0 107-384 0 0-384 107 0 0 21-86 0z m107-107l0-384 384 0 0 384z m363-363l-342 0 0 342 342 0z m-69 90l15-13c7 9 13 17 17 28l-17 8c-4-6-8-15-15-23z m-100-49l0-19c11 0 21 2 32 4l-4 19c-9-2-17-4-28-4z m56 13l8-17c11 4 19 10 28 17l-13 15c-6-5-15-11-23-15z m-158 34l-15-13c6-9 15-17 23-23l11 14c-6 7-13 13-19 22z m38-54c11-4 21-8 32-10l4 19c-8 2-19 4-27 9z m-83 101c2-11 6-22 13-32l17 8c-4 9-9 17-11 28z m40 113l-14 10c-7-8-13-19-18-27l18-9c4 11 8 19 14 26z m99 53l0 19c-11 0-22-2-32-4l4-19c8 2 19 4 28 4z m-56-15l-8 17c-11-4-20-10-28-19l13-15c6 7 15 13 23 17z m192-115c0-11-2-19-2-28l19-4c2 11 4 21 4 32 0 2 0 6 0 9l-19-3c-2 0-2-4-2-6z m-260-4l0 4c0 9 0 17 2 26l-19 4c-2-11-2-19-2-30l0-4z m273 47c-2 10-6 21-13 30l-17-9c4-9 9-17 11-26z m-85 96c-11 4-22 6-32 8l-3-19c9-2 20-4 28-9z m53-39c-6 9-15 15-26 22l-10-15c8-7 15-13 21-20z"/>
<glyph unicode="&#118;" d="M0 512l0-427 107 128 149 0z m512-128l0 85-85 0 0-42-64 0 0 42-86 0 0-42-64 0 0 42-85 0 0-85 43 0 0-38 42-49 0 87 214 0 0-299-214 0 0 107-42 0 0-107-43 0 0-85 85 0 0 43 64 0 0-43 86 0 0 43 64 0 0-43 85 0 0 85-43 0 0 107 43 0 0 85-43 0 0 107z m-213-128l0-43 42 0 0 43z"/>
<glyph unicode="&#119;" d="M256 192c-126 0-186-64-213-107l-43 0 0-85 85 0 0 75c26 32 77 74 171 74 94 0 145-42 171-74l0-75 85 0 0 85-41 0c-27 43-89 107-215 107z m-98 2c0 0 43 17 98 17 55 0 98-17 98-17l15-6 143 194-9 13c-2 4-64 106-228 115l-42 0c-163-7-222-113-227-117l-6-13 143-192z m119 273c109-6 162-60 182-83l-37-51c-23 21-70 49-145 53z m0-124c66-4 105-29 122-44l-43-60c-17 4-45 13-77 15l0 89z m-226 37c22 25 75 81 184 87l0-83c-77-4-122-32-148-53z m184-37l0-89c-34-2-62-9-77-15l-43 60c15 12 54 38 120 44z"/>
<glyph unicode="&#120;" d="M196 318l122-122 85 86-121 121z m-149-211l-47-107 107 47 113 113-60 60z m147 207l-66 66c-13 13-34 13-49 0l-21-22c-9-8-9-21 0-29l271-271c8-9 21-9 29 0l22 21c13 13 13 34 0 49z m307-5l-194 194c-13 13-34 13-49 0l-11-12c-12-13-12-34 0-49l195-195c12-12 34-12 49 0l12 13c13 13 13 37-2 49z"/>
<glyph unicode="&#121;" d="M85 128c30-13 62-17 94-17 51 0 90 28 103 51 19 30 0 58-17 79-35 36-84 28-133-23-10-11-21-20-30-26-19-13-44-23-66-2-17 17-15 45-15 66 0 130 105 235 235 235 49 0 94-15 130-41l15 15c-40 30-92 47-145 47-141 0-256-115-256-256 0-19 0-43 11-62 17-32 44-53 74-66z m374 245c21-34 32-74 32-117 0-130-105-235-235-235-64 0-124 26-166 69l-15-15c47-47 111-75 181-75 141 0 256 115 256 256 0 49-15 96-38 134z m15 135l-35-34-174-177c4-3 55-58 55-58l166 205 26 30 0 38z"/>
<glyph unicode="&#122;" d="M309 47c58 0 109 32 135 81l-269 0c26-47 77-81 134-81z m0 358c-23 0-44-4-66-10l17-17c17 4 32 6 49 6 101 0 182-81 182-181 0-26-7-52-17-75-28-62-92-107-165-107-72 0-136 45-164 107 0 2-2 4-2 6-6-2-13-4-21-6 0 0 0 0 0-2 29-75 102-128 187-128 86 0 158 53 188 128 9 23 15 49 15 75 0 113-92 204-203 204z m-15-98c3-4 5-15 5-28 0-34-34-55-24-87 7-19 28-32 41-26 10 5 17 22 17 60 2 83-36 105-60 107l-83 85 0 24c0 36-32 70-66 70-26 0-43-23-43-64l0-81-60-62c-27-28-27-70 0-98l37-36c12-13 29-22 49-22 19 0 36 7 49 22z m-192 141c0 17 3 43 24 43 21 0 45-24 45-49l0-3-9 7-60-60z m5-277c-13 0-26 4-34 15l-37 36c-19 19-19 49 0 68l126 126 7-6 0-60c-7-2-11-11-11-17 0-11 8-22 21-22 13 0 22 9 22 22 0 6-5 13-9 17l0 38 77-77-126-125c-11-11-24-15-36-15z m-107 341z m512-512z"/>
<glyph unicode="&#65;" d="M491 358l-17-17c10-25 17-55 17-85 0-130-105-235-235-235-43 0-83 13-117 32l-15-15c38-23 85-38 134-38 141 0 256 115 256 256-2 36-11 73-23 102z m-205 24l-98-98 96-96 170 170-96 96z m173 2c6-6 17-6 23 0l17 17c19 19 19 51 0 73l-25 25c-20 19-52 19-73 0l-6-6-11-13c-6-6-6-17 0-23z m-190-211l-96 96-81-158-5-19c-40 42-66 100-66 164 0 130 105 235 235 235 30 0 60-7 87-17l15 17c-32 15-66 21-102 21-141 0-256-115-256-256 0-70 28-134 75-181l12 12 24 5 62 32z m-122-41l-6 7-7 6 45 90 58-58-77-38z"/>
<glyph unicode="&#66;" d="M256 23c-128 0-235 105-235 235 0 128 105 235 235 235 130 0 235-105 235-235 0-49-15-94-41-132l15-15c30 40 47 92 47 147 0 141-115 256-256 256-141-2-256-117-256-258 0-141 115-256 256-256 55 0 105 17 147 47l-17 17c-36-26-83-41-130-41z m-30 126c0-10 9-19 19-19 11 0 20 9 20 19 0 11-9 20-20 20-10-3-19-11-19-20z m39 229c0 10-9 19-20 19-10 0-19-9-19-19 0-11 9-20 19-20 11 0 20 9 20 20z m81-75c10 0 19 8 19 19 0 11-9 19-19 19-11 0-17-10-17-21 0-11 8-17 17-17z m-180 17c0 11-8 19-19 19-10 0-17-8-17-19 0-11 9-19 19-19 11 0 17 8 17 19z m344-286l-167 167c0 0-4-15 0-39 5-23 15-40 15-40l120-120 34-2z m-348 179c-4 7-8 9-15 9-10 0-19-9-19-19 0-11 9-20 19-20 11 0 19 9 19 20-2 4-2 8-4 10z m241 45c2 0 4 2 4 4 0 3-2 5-4 7-36 6-83 15-92 32-8 17 5 62 20 96 0 2 0 6-2 6 0 0-3 0-3 0-2 0-4 0-4-2-23-30-55-64-75-64-19 0-51 36-74 64 0 2-2 2-4 2 0 0-3 0-3 0-2-2-4-4-2-8 13-34 28-79 19-96-8-17-55-26-91-32-2 0-5-2-5-7 0-2 3-4 5-4 36-6 83-15 91-32 9-17-4-62-19-96 0-2 0-6 2-6 0 0 3 0 3 0 2 0 2 0 4 2 23 30 55 64 74 64 20 0 52-37 75-64 0-2 2-2 4-2 0 0 3 0 3 0 2 2 4 4 2 6-13 34-28 79-20 96 9 17 56 28 92 34z"/>
<glyph unicode="&#67;" d="M260 512c-2 0-2 0-4 0-2 0-2 0-4 0-11 0-24-2-34-2 6-7 10-13 15-19 8 0 14 0 23 0 130 0 235-105 235-235 0-38-9-75-26-107-38-76-117-128-209-128-51 0-98 17-137 45-17 0-32 4-46 11 46-47 113-77 183-77 102 0 192 62 233 149 14 32 23 69 23 107 0 141-113 254-252 256z m-200-126l0 34c-28-32-47-74-56-119l30 30c7 19 15 38 26 55z m119-267l158 158c4-6 4-17 4-32 0-38-38-62-25-100 6-21 32-36 47-28 12 7 19 24 19 69 2 96-41 119-68 123l-96 96 0 26c0 43-37 81-75 81-32 0-51-28-51-75l0-94-71-70c-32-32-32-81 0-113l43-43c15-15 34-23 55-23 22 0 43 11 60 25z m-62 318c0 20 5 49 26 49 26 3 49-27 49-55l0-2-6 8-69-68z m-76-258c-22 22-22 58 0 79l145 145 6-8 0-69c-9-4-13-10-13-21 0-13 11-23 24-23 12 0 23 10 23 23 0 9-4 15-11 19l0 47 88-87-145-145c-11-11-24-17-39-17-14 0-27 6-38 17z"/>
</font>
</defs>
</svg>
